<svg xmlns="http://www.w3.org/2000/svg" viewBox="0 0 1024 1024">
  <rect width="1024" height="1024" fill="#EC1968"/>
  <!-- espiral hexagonal -->
  <path d="M512 132 L818.6 335 L796 676 L512 814 L273 650 L295.5 387 L512 288 L683.5 413 L660.9 598 L512 658 L408 572 L430.6 465 L512 444 L548.4 491"
        fill="none" stroke="#fff" stroke-width="66" stroke-linejoin="miter" stroke-linecap="butt"/>
  <!-- cierre / zipper -->
  <g fill="#fff">
    <!-- dientes cerrados -->
    <g>
      <rect x="300" y="300" width="30" height="16" rx="4"/><rect x="330" y="322" width="30" height="16" rx="4"/>
      <rect x="300" y="344" width="30" height="16" rx="4"/><rect x="330" y="366" width="30" height="16" rx="4"/>
      <rect x="300" y="388" width="30" height="16" rx="4"/><rect x="330" y="410" width="30" height="16" rx="4"/>
      <rect x="300" y="432" width="30" height="16" rx="4"/><rect x="330" y="454" width="30" height="16" rx="4"/>
      <rect x="300" y="476" width="30" height="16" rx="4"/><rect x="330" y="498" width="30" height="16" rx="4"/>
      <rect x="300" y="520" width="30" height="16" rx="4"/><rect x="330" y="542" width="30" height="16" rx="4"/>
      <rect x="300" y="564" width="30" height="16" rx="4"/>
    </g>
    <!-- deslizador -->
    <rect x="296" y="588" width="68" height="60" rx="16"/>
    <circle cx="330" cy="614" r="13" fill="#EC1968"/>
    <!-- tirador -->
    <rect x="318" y="644" width="24" height="52" rx="9"/>
    <rect x="325" y="652" width="10" height="30" rx="4" fill="#EC1968"/>
    <!-- dientes abiertos -->
    <g>
      <rect x="279" y="708" width="28" height="15" rx="4" transform="rotate(28 293 715)"/>
      <rect x="264" y="736" width="28" height="15" rx="4" transform="rotate(28 278 743)"/>
      <rect x="249" y="764" width="28" height="15" rx="4" transform="rotate(28 263 771)"/>
      <rect x="353" y="708" width="28" height="15" rx="4" transform="rotate(-28 367 715)"/>
      <rect x="368" y="736" width="28" height="15" rx="4" transform="rotate(-28 382 743)"/>
      <rect x="383" y="764" width="28" height="15" rx="4" transform="rotate(-28 397 771)"/>
    </g>
  </g>
</svg>
